<svg viewBox="0 0 2000 50" preserveAspectRatio="none" xmlns="http://www.w3.org/2000/svg"><path fill="currentColor" d="m0 34.48 15.625 2.664 15.625.582 15.625 1.117L62.5 36.96l15.625.683 15.625 2.66 15.625 1.473 15.625-.8 15.625 1.373 15.625-2.505 15.625 3.207 15.625-1.577 15.625 1.986 15.625-2.977 15.625 1.15L250 39.89l15.625-2.34 15.625.19 15.625.99 15.625-3.35 15.625-1.223 15.625 2.579 15.625.454L375 36.316l15.625.53 15.625-2.276 15.625.51 15.625-1.795 15.625 1.57 15.625 2.913 15.625.254L500 36.924l15.625-2.316 15.625.635 15.625-.124 15.625-.912 15.625-3.441 15.625-1.993 15.625-1.105L625 29.67l15.625 2.282 15.625-1.443 15.625-2.654 15.625.725 15.625.787 15.625 1.927 15.625-.374L750 32.469l15.625.742 15.625.782 15.625 1.835L812.5 35.4l15.625-.534 15.625-.37 15.625 2.011L875 33.841l15.625-2.895 15.625 1.887 15.625-1.715 15.625 1.148 15.625.571 15.625-2.678 15.625-.872L1000 33.578l15.625 1.951 15.625 2.827 15.625-2.342 15.625.783 15.625-2.899 15.625-.446 15.625.736L1125 36.321l15.625-2.776 15.625 1.63 15.625 1.082 15.625 3.826 15.625-.78 15.625-2.065 15.625-1.335 15.625.78 15.625 1.84 15.625-3.369 15.625.486 15.625.406 15.625-.603 15.625 1.44 15.625-2.362L1375 35.85l15.625-2.222 15.625 1.989 15.625-3.82 15.625-1.066 15.625.96 15.625 2.04 15.625-2.545L1500 32.452l15.625 2.197 15.625-1.575 15.625-2.206 15.625-2.184 15.625 2.932 15.625-2.308 15.625.304 15.625-.956 15.625.798 15.625-1.094 15.625-.64 15.625 1.434 15.625 3.633 15.625-.809 15.625-1.176 15.625.618 15.625-.462 15.625 1.7 15.625-1.438 15.625-3.347 15.625.402 15.625-.077 15.625.676 15.625.218 15.625-1.17 15.625-2.534 15.625-1.337 15.625 2.513 15.625-1.242 15.625.263 15.625 3.402L2000 30.43V50H0Z"></path></svg>