<svg viewBox="0 0 2000 50" preserveAspectRatio="none" xmlns="http://www.w3.org/2000/svg"><path fill="currentColor" d="m0 30.835 15.625-3.717 15.625-1.822 15.625-.432L62.5 26.139l15.625 1.508 15.625 1.25 15.625-.942L125 25.879l15.625.85 15.625-2.012 15.625-1.588 15.625 3.03 15.625-1.401 15.625-1.406 15.625.779L250 25.3l15.625 3.032 15.625.231 15.625-2.083 15.625 2.253 15.625-3.278 15.625-.758 15.625 2.076 15.625.014 15.625-.01 15.625-.355 15.625-.722 15.625 1.08 15.625 1.561 15.625-3.61 15.625-.097L500 28.345l15.625-1.79 15.625 1.49 15.625.814 15.625-.555 15.625-3.802 15.625-.341 15.625-1.68L625 25.546l15.625 1.685 15.625-2.392 15.625 1.478 15.625 3.17 15.625-1.606 15.625 2.965 15.625-4.553L750 26.094l15.625 1.303 15.625.091 15.625 1.307 15.625-.487 15.625-2.957 15.625-.449 15.625-.622L875 26.34l15.625-.296 15.625-5.43 15.625 2.162 15.625-1.838 15.625 1.066 15.625 1.06 15.625-1.5 15.625.123 15.625 1.974 15.625 1.904 15.625.736 15.625-1.831 15.625.76 15.625-2.944 15.625-.972L1125 23.428l15.625-2.85 15.625-1.447 15.625-.292 15.625-1.74 15.625-2.13 15.625 1.578 15.625 2.414L1250 16.768l15.625-1.69 15.625 3.385 15.625-.64 15.625 4.04 15.625-1.894 15.625-1.758 15.625-.14L1375 20.51l15.625-3.046 15.625 1.767 15.625.602 15.625.183 15.625-1.244 15.625-2.06 15.625-.994L1500 19.614l15.625 1.24 15.625 2.293 15.625-2.204 15.625.04 15.625.129 15.625-1.18 15.625-.264L1625 21.497l15.625-2.032 15.625-1.567 15.625.508 15.625 1.26 15.625 2.043 15.625-1.293 15.625.61L1750 18.018l15.625-.365 15.625-1.283 15.625 1.463 15.625 1.525 15.625 2.683 15.625-1.577 15.625-.342L1875 24.275l15.625-1.629 15.625-.044 15.625-1.047 15.625 3.819 15.625-.977 15.625-.602 15.625-.633L2000 21.157V50H0Z"></path></svg>